<svg xmlns="http://www.w3.org/2000/svg" xmlns:xlink="http://www.w3.org/1999/xlink" contentStyleType="text/css" data-diagram-type="DESCRIPTION" height="1164px" preserveAspectRatio="none" style="width:1408px;height:1164px;background:#FAFAFA;" version="1.1" viewBox="0 0 1408 1164" width="1408px" zoomAndPan="magnify"><?plantuml 1.2026.3?><defs/><g><rect fill="#FAFAFA" height="1164" style="stroke:none;stroke-width:1;" width="1408" x="0" y="0"/><g class="title" data-source-line="12"><text fill="#000000" font-family="'Segoe UI'" font-size="22" font-weight="700" lengthAdjust="spacing" textLength="239.207" x="583.4778" y="38.7402">Mimic3 &#12471;&#12473;&#12486;&#12512;&#12450;&#12540;&#12461;&#12486;&#12463;&#12481;&#12515;</text></g><!--cluster ????????--><g class="cluster" data-qualified-name="........" data-source-line="18" id="ent0002"><path d="M1020.5,61.2754 L1093.7969,61.2754 A3.75,3.75 0 0 1 1096.2969,63.7754 L1103.2969,85.8965 L1175.5,85.8965 A2.5,2.5 0 0 1 1178,88.3965 L1178,338.7754 A2.5,2.5 0 0 1 1175.5,341.2754 L1020.5,341.2754 A2.5,2.5 0 0 1 1018,338.7754 L1018,63.7754 A2.5,2.5 0 0 1 1020.5,61.2754" fill="#FFFFFF" style="stroke:#000000;stroke-width:1;"/><line style="stroke:#000000;stroke-width:1;" x1="1018" x2="1103.2969" y1="85.8965" y2="85.8965"/><text fill="#000000" font-family="'Segoe UI'" font-size="14" font-weight="700" lengthAdjust="spacing" textLength="72.2969" x="1022" y="78.3828">&#12456;&#12531;&#12488;&#12522;&#12509;&#12452;&#12531;&#12488;</text></g><!--cluster ???--><g class="cluster" data-qualified-name="..." data-source-line="23" id="ent0005"><path d="M13.5,230.2754 L41.6113,230.2754 A3.75,3.75 0 0 1 44.1113,232.7754 L51.1113,254.8965 L341.5,254.8965 A2.5,2.5 0 0 1 344,257.3965 L344,646.7754 A2.5,2.5 0 0 1 341.5,649.2754 L13.5,649.2754 A2.5,2.5 0 0 1 11,646.7754 L11,232.7754 A2.5,2.5 0 0 1 13.5,230.2754" fill="#FFFFFF" style="stroke:#000000;stroke-width:1;"/><line style="stroke:#000000;stroke-width:1;" x1="11" x2="51.1113" y1="254.8965" y2="254.8965"/><text fill="#000000" font-family="'Segoe UI'" font-size="14" font-weight="700" lengthAdjust="spacing" textLength="27.1113" x="15" y="247.3828">&#35373;&#23450;&#23652;</text></g><!--cluster ???????????--><g class="cluster" data-qualified-name="..........." data-source-line="30" id="ent0010"><path d="M877.5,392.2754 L977.9082,392.2754 A3.75,3.75 0 0 1 980.4082,394.7754 L987.4082,416.8965 L1281.5,416.8965 A2.5,2.5 0 0 1 1284,419.3965 L1284,655.7754 A2.5,2.5 0 0 1 1281.5,658.2754 L877.5,658.2754 A2.5,2.5 0 0 1 875,655.7754 L875,394.7754 A2.5,2.5 0 0 1 877.5,392.2754" fill="#FFFFFF" style="stroke:#000000;stroke-width:1;"/><line style="stroke:#000000;stroke-width:1;" x1="875" x2="987.4082" y1="416.8965" y2="416.8965"/><text fill="#000000" font-family="'Segoe UI'" font-size="14" font-weight="700" lengthAdjust="spacing" textLength="99.4082" x="879" y="409.3828">&#12458;&#12540;&#12465;&#12473;&#12488;&#12524;&#12540;&#12471;&#12519;&#12531;&#23652;</text></g><!--cluster AI ????--><g class="cluster" data-qualified-name="AI ...." data-source-line="37" id="ent0015"><path d="M327.5,709.2754 L382.791,709.2754 A3.75,3.75 0 0 1 385.291,711.7754 L392.291,733.8965 L1082.5,733.8965 A2.5,2.5 0 0 1 1085,736.3965 L1085,845.7754 A2.5,2.5 0 0 1 1082.5,848.2754 L327.5,848.2754 A2.5,2.5 0 0 1 325,845.7754 L325,711.7754 A2.5,2.5 0 0 1 327.5,709.2754" fill="#FFFFFF" style="stroke:#000000;stroke-width:1;"/><line style="stroke:#000000;stroke-width:1;" x1="325" x2="392.291" y1="733.8965" y2="733.8965"/><text fill="#000000" font-family="'Segoe UI'" font-size="14" font-weight="700" lengthAdjust="spacing" textLength="54.291" x="329" y="726.3828">AI &#12514;&#12487;&#12523;&#23652;</text></g><!--cluster ????--><g class="cluster" data-qualified-name="...." data-source-line="45" id="ent0021"><path d="M228.5,908.2754 L265.6484,908.2754 A3.75,3.75 0 0 1 268.1484,910.7754 L275.1484,932.8965 L902.5,932.8965 A2.5,2.5 0 0 1 905,935.3965 L905,1146.7754 A2.5,2.5 0 0 1 902.5,1149.2754 L228.5,1149.2754 A2.5,2.5 0 0 1 226,1146.7754 L226,910.7754 A2.5,2.5 0 0 1 228.5,908.2754" fill="#FFFFFF" style="stroke:#000000;stroke-width:1;"/><line style="stroke:#000000;stroke-width:1;" x1="226" x2="275.1484" y1="932.8965" y2="932.8965"/><text fill="#000000" font-family="'Segoe UI'" font-size="14" font-weight="700" lengthAdjust="spacing" textLength="36.1484" x="230" y="925.3828">&#12484;&#12540;&#12523;&#23652;</text></g><!--cluster ?????--><g class="cluster" data-qualified-name="....." data-source-line="53" id="ent0027"><path d="M931.5,899.2754 L977.6855,899.2754 A3.75,3.75 0 0 1 980.1855,901.7754 L987.1855,923.8965 L1334.5,923.8965 A2.5,2.5 0 0 1 1337,926.3965 L1337,1016.7754 A2.5,2.5 0 0 1 1334.5,1019.2754 L931.5,1019.2754 A2.5,2.5 0 0 1 929,1016.7754 L929,901.7754 A2.5,2.5 0 0 1 931.5,899.2754" fill="#FFFFFF" style="stroke:#000000;stroke-width:1;"/><line style="stroke:#000000;stroke-width:1;" x1="929" x2="987.1855" y1="923.8965" y2="923.8965"/><text fill="#000000" font-family="'Segoe UI'" font-size="14" font-weight="700" lengthAdjust="spacing" textLength="45.1855" x="933" y="916.3828">&#12452;&#12531;&#12501;&#12521;&#23652;</text></g><!--entity MAIN--><g class="entity" data-qualified-name=".........MAIN" data-source-line="19" id="ent0003"><rect fill="#E8F5E9" height="67.2422" rx="2.5" ry="2.5" style="stroke:#333333;stroke-width:1;" width="88.5352" x="1053.5" y="258.2754"/><rect fill="#E8F5E9" height="10" style="stroke:#333333;stroke-width:1;" width="15" x="1122.0352" y="263.2754"/><rect fill="#E8F5E9" height="2" style="stroke:#333333;stroke-width:1;" width="4" x="1120.0352" y="265.2754"/><rect fill="#E8F5E9" height="2" style="stroke:#333333;stroke-width:1;" width="4" x="1120.0352" y="269.2754"/><text fill="#000000" font-family="'Segoe UI'" font-size="14" lengthAdjust="spacing" text-decoration="underline" textLength="30.4951" x="1068.5" y="293.3828">main</text><text fill="#000000" font-family="'Segoe UI'" font-size="14" lengthAdjust="spacing" textLength="18.04" x="1098.9951" y="293.3828">.py</text><text fill="#000000" font-family="'Segoe UI'" font-size="14" lengthAdjust="spacing" textLength="38.9443" x="1068.5" y="312.0039">main()</text></g><!--entity MCP--><g class="entity" data-qualified-name=".........MCP" data-source-line="20" id="ent0004"><rect fill="#E8F5E9" height="67.2422" rx="2.5" ry="2.5" style="stroke:#333333;stroke-width:1;" width="127.6299" x="1034" y="98.2754"/><rect fill="#E8F5E9" height="10" style="stroke:#333333;stroke-width:1;" width="15" x="1141.6299" y="103.2754"/><rect fill="#E8F5E9" height="2" style="stroke:#333333;stroke-width:1;" width="4" x="1139.6299" y="105.2754"/><rect fill="#E8F5E9" height="2" style="stroke:#333333;stroke-width:1;" width="4" x="1139.6299" y="109.2754"/><text fill="#000000" font-family="'Segoe UI'" font-size="14" lengthAdjust="spacing" textLength="87.6299" x="1049" y="133.3828">mcp_server.py</text><text fill="#000000" font-family="'Segoe UI'" font-size="14" lengthAdjust="spacing" textLength="71.4355" x="1049" y="152.0039">MCP Server</text></g><!--entity ENV--><g class="entity" data-qualified-name="....ENV" data-source-line="24" id="ent0006"><rect fill="#FFF8DC" height="48.6211" rx="2.5" ry="2.5" style="stroke:#333333;stroke-width:1;" width="75.9639" x="229" y="267.2754"/><rect fill="#FFF8DC" height="10" style="stroke:#333333;stroke-width:1;" width="15" x="284.9639" y="272.2754"/><rect fill="#FFF8DC" height="2" style="stroke:#333333;stroke-width:1;" width="4" x="282.9639" y="274.2754"/><rect fill="#FFF8DC" height="2" style="stroke:#333333;stroke-width:1;" width="4" x="282.9639" y="278.2754"/><text fill="#000000" font-family="'Segoe UI'" font-size="14" lengthAdjust="spacing" textLength="35.9639" x="244" y="302.3828">".env"</text></g><!--entity CFG--><g class="entity" data-qualified-name="....CFG" data-source-line="25" id="ent0007"><rect fill="#DDEEFF" height="67.2422" rx="2.5" ry="2.5" style="stroke:#333333;stroke-width:1;" width="119.8301" x="207" y="429.2754"/><rect fill="#DDEEFF" height="10" style="stroke:#333333;stroke-width:1;" width="15" x="306.8301" y="434.2754"/><rect fill="#DDEEFF" height="2" style="stroke:#333333;stroke-width:1;" width="4" x="304.8301" y="436.2754"/><rect fill="#DDEEFF" height="2" style="stroke:#333333;stroke-width:1;" width="4" x="304.8301" y="440.2754"/><text fill="#000000" font-family="'Segoe UI'" font-size="14" lengthAdjust="spacing" textLength="56.6494" x="222" y="464.3828">config.py</text><text fill="#000000" font-family="'Segoe UI'" font-size="14" lengthAdjust="spacing" textLength="79.8301" x="222" y="483.0039">load_config()</text></g><!--entity DCFG--><g class="entity" data-qualified-name="....DCFG" data-source-line="26" id="ent0008"><rect fill="#DDEEFF" height="48.6211" rx="2.5" ry="2.5" style="stroke:#333333;stroke-width:1;" width="109.0635" x="218.5" y="584.2754"/><rect fill="#DDEEFF" height="10" style="stroke:#333333;stroke-width:1;" width="15" x="307.5635" y="589.2754"/><rect fill="#DDEEFF" height="2" style="stroke:#333333;stroke-width:1;" width="4" x="305.5635" y="591.2754"/><rect fill="#DDEEFF" height="2" style="stroke:#333333;stroke-width:1;" width="4" x="305.5635" y="595.2754"/><text fill="#000000" font-family="'Segoe UI'" font-size="14" lengthAdjust="spacing" textLength="69.0635" x="233.5" y="619.3828">DualConfig</text></g><!--entity OCFG--><g class="entity" data-qualified-name="....OCFG" data-source-line="27" id="ent0009"><rect fill="#DDEEFF" height="48.6211" rx="2.5" ry="2.5" style="stroke:#333333;stroke-width:1;" width="156.2725" x="27" y="584.2754"/><rect fill="#DDEEFF" height="10" style="stroke:#333333;stroke-width:1;" width="15" x="163.2725" y="589.2754"/><rect fill="#DDEEFF" height="2" style="stroke:#333333;stroke-width:1;" width="4" x="161.2725" y="591.2754"/><rect fill="#DDEEFF" height="2" style="stroke:#333333;stroke-width:1;" width="4" x="161.2725" y="595.2754"/><text fill="#000000" font-family="'Segoe UI'" font-size="14" lengthAdjust="spacing" textLength="116.2725" x="42" y="619.3828">OpenRouterConfig</text></g><!--entity DMO--><g class="entity" data-qualified-name="............DMO" data-source-line="31" id="ent0011"><rect fill="#FFE4B5" height="48.6211" rx="2.5" ry="2.5" style="stroke:#333333;stroke-width:1;" width="185.6055" x="1082" y="438.2754"/><rect fill="#FFE4B5" height="10" style="stroke:#333333;stroke-width:1;" width="15" x="1247.6055" y="443.2754"/><rect fill="#FFE4B5" height="2" style="stroke:#333333;stroke-width:1;" width="4" x="1245.6055" y="445.2754"/><rect fill="#FFE4B5" height="2" style="stroke:#333333;stroke-width:1;" width="4" x="1245.6055" y="449.2754"/><text fill="#000000" font-family="'Segoe UI'" font-size="14" lengthAdjust="spacing" textLength="145.6055" x="1097" y="473.3828">DualModelOrchestrator</text></g><!--entity AO--><g class="entity" data-qualified-name="............AO" data-source-line="32" id="ent0012"><rect fill="#FFE4B5" height="67.2422" rx="2.5" ry="2.5" style="stroke:#333333;stroke-width:1;" width="156.498" x="891" y="429.2754"/><rect fill="#FFE4B5" height="10" style="stroke:#333333;stroke-width:1;" width="15" x="1027.498" y="434.2754"/><rect fill="#FFE4B5" height="2" style="stroke:#333333;stroke-width:1;" width="4" x="1025.498" y="436.2754"/><rect fill="#FFE4B5" height="2" style="stroke:#333333;stroke-width:1;" width="4" x="1025.498" y="440.2754"/><text fill="#000000" font-family="'Segoe UI'" font-size="14" lengthAdjust="spacing" textLength="114.8848" x="906" y="464.3828">AgentOrchestrator</text><text fill="#000000" font-family="'Segoe UI'" font-size="14" lengthAdjust="spacing" textLength="116.498" x="906" y="483.0039">(Plan-and-Execute)</text></g><!--entity IO--><g class="entity" data-qualified-name="............IO" data-source-line="33" id="ent0013"><rect fill="#FFE4B5" height="67.2422" rx="2.5" ry="2.5" style="stroke:#333333;stroke-width:1;" width="181.9551" x="1086" y="575.2754"/><rect fill="#FFE4B5" height="10" style="stroke:#333333;stroke-width:1;" width="15" x="1247.9551" y="580.2754"/><rect fill="#FFE4B5" height="2" style="stroke:#333333;stroke-width:1;" width="4" x="1245.9551" y="582.2754"/><rect fill="#FFE4B5" height="2" style="stroke:#333333;stroke-width:1;" width="4" x="1245.9551" y="586.2754"/><text fill="#000000" font-family="'Segoe UI'" font-size="14" lengthAdjust="spacing" textLength="141.9551" x="1101" y="610.3828">InteractiveOrchestrator</text><text fill="#000000" font-family="'Segoe UI'" font-size="14" lengthAdjust="spacing" textLength="44.3857" x="1101" y="629.0039">(ReAct)</text></g><!--entity WG--><g class="entity" data-qualified-name="............WG" data-source-line="34" id="ent0014"><rect fill="#FFE4B5" height="48.6211" rx="2.5" ry="2.5" style="stroke:#333333;stroke-width:1;" width="136.9473" x="913.5" y="584.2754"/><rect fill="#FFE4B5" height="10" style="stroke:#333333;stroke-width:1;" width="15" x="1030.4473" y="589.2754"/><rect fill="#FFE4B5" height="2" style="stroke:#333333;stroke-width:1;" width="4" x="1028.4473" y="591.2754"/><rect fill="#FFE4B5" height="2" style="stroke:#333333;stroke-width:1;" width="4" x="1028.4473" y="595.2754"/><text fill="#000000" font-family="'Segoe UI'" font-size="14" lengthAdjust="spacing" textLength="96.9473" x="928.5" y="619.3828">WorkflowGraph</text></g><!--entity THINKER--><g class="entity" data-qualified-name="AI .....THINKER" data-source-line="38" id="ent0016"><rect fill="#E0E0FF" height="85.8633" rx="2.5" ry="2.5" style="stroke:#333333;stroke-width:1;" width="131.3896" x="749.5" y="746.2754"/><rect fill="#E0E0FF" height="10" style="stroke:#333333;stroke-width:1;" width="15" x="860.8896" y="751.2754"/><rect fill="#E0E0FF" height="2" style="stroke:#333333;stroke-width:1;" width="4" x="858.8896" y="753.2754"/><rect fill="#E0E0FF" height="2" style="stroke:#333333;stroke-width:1;" width="4" x="858.8896" y="757.2754"/><text fill="#000000" font-family="'Segoe UI'" font-size="14" lengthAdjust="spacing" textLength="87.7461" x="764.5" y="781.3828">MistralThinker</text><text fill="#000000" font-family="'Segoe UI'" font-size="14" lengthAdjust="spacing" textLength="91.3896" x="764.5" y="800.0039">Mistral Large 3</text><text fill="#000000" font-family="'Segoe UI'" font-size="14" lengthAdjust="spacing" textLength="53.6348" x="764.5" y="818.625">(&#12484;&#12540;&#12523;&#12394;&#12375;)</text></g><!--entity ACTOR--><g class="entity" data-qualified-name="AI .....ACTOR" data-source-line="39" id="ent0017"><rect fill="#E0E0FF" height="85.8633" rx="2.5" ry="2.5" style="stroke:#333333;stroke-width:1;" width="152.7246" x="915.5" y="746.2754"/><rect fill="#E0E0FF" height="10" style="stroke:#333333;stroke-width:1;" width="15" x="1048.2246" y="751.2754"/><rect fill="#E0E0FF" height="2" style="stroke:#333333;stroke-width:1;" width="4" x="1046.2246" y="753.2754"/><rect fill="#E0E0FF" height="2" style="stroke:#333333;stroke-width:1;" width="4" x="1046.2246" y="757.2754"/><text fill="#000000" font-family="'Segoe UI'" font-size="14" lengthAdjust="spacing" textLength="112.7246" x="930.5" y="781.3828">OpenRouterAgent</text><text fill="#000000" font-family="'Segoe UI'" font-size="14" lengthAdjust="spacing" textLength="59.7598" x="930.5" y="800.0039">OwlAlpha</text><text fill="#000000" font-family="'Segoe UI'" font-size="14" lengthAdjust="spacing" textLength="53.6348" x="930.5" y="818.625">(&#12501;&#12523;&#12484;&#12540;&#12523;)</text></g><!--entity PLANNER--><g class="entity" data-qualified-name="AI .....PLANNER" data-source-line="40" id="ent0018"><rect fill="#E0E0FF" height="67.2422" rx="2.5" ry="2.5" style="stroke:#333333;stroke-width:1;" width="113.124" x="471.5" y="755.7754"/><rect fill="#E0E0FF" height="10" style="stroke:#333333;stroke-width:1;" width="15" x="564.624" y="760.7754"/><rect fill="#E0E0FF" height="2" style="stroke:#333333;stroke-width:1;" width="4" x="562.624" y="762.7754"/><rect fill="#E0E0FF" height="2" style="stroke:#333333;stroke-width:1;" width="4" x="562.624" y="766.7754"/><text fill="#000000" font-family="'Segoe UI'" font-size="14" lengthAdjust="spacing" textLength="46.3887" x="486.5" y="790.8828">Planner</text><text fill="#000000" font-family="'Segoe UI'" font-size="14" lengthAdjust="spacing" textLength="73.124" x="486.5" y="809.5039">JSON mode</text></g><!--entity REVIEWER--><g class="entity" data-qualified-name="AI .....REVIEWER" data-source-line="41" id="ent0019"><rect fill="#E0E0FF" height="48.6211" rx="2.5" ry="2.5" style="stroke:#333333;stroke-width:1;" width="95.4189" x="619.5" y="764.7754"/><rect fill="#E0E0FF" height="10" style="stroke:#333333;stroke-width:1;" width="15" x="694.9189" y="769.7754"/><rect fill="#E0E0FF" height="2" style="stroke:#333333;stroke-width:1;" width="4" x="692.9189" y="771.7754"/><rect fill="#E0E0FF" height="2" style="stroke:#333333;stroke-width:1;" width="4" x="692.9189" y="775.7754"/><text fill="#000000" font-family="'Segoe UI'" font-size="14" lengthAdjust="spacing" textLength="55.4189" x="634.5" y="799.8828">Reviewer</text></g><!--entity REFLECTOR--><g class="entity" data-qualified-name="AI .....REFLECTOR" data-source-line="42" id="ent0020"><rect fill="#E0E0FF" height="48.6211" rx="2.5" ry="2.5" style="stroke:#333333;stroke-width:1;" width="95.0703" x="341.5" y="764.7754"/><rect fill="#E0E0FF" height="10" style="stroke:#333333;stroke-width:1;" width="15" x="416.5703" y="769.7754"/><rect fill="#E0E0FF" height="2" style="stroke:#333333;stroke-width:1;" width="4" x="414.5703" y="771.7754"/><rect fill="#E0E0FF" height="2" style="stroke:#333333;stroke-width:1;" width="4" x="414.5703" y="775.7754"/><text fill="#000000" font-family="'Segoe UI'" font-size="14" lengthAdjust="spacing" textLength="55.0703" x="356.5" y="799.8828">Reflector</text></g><!--entity TR--><g class="entity" data-qualified-name=".....TR" data-source-line="46" id="ent0022"><rect fill="#F0F0F0" height="48.6211" rx="2.5" ry="2.5" style="stroke:#333333;stroke-width:1;" width="116.7881" x="610.5" y="945.2754"/><rect fill="#F0F0F0" height="10" style="stroke:#333333;stroke-width:1;" width="15" x="707.2881" y="950.2754"/><rect fill="#F0F0F0" height="2" style="stroke:#333333;stroke-width:1;" width="4" x="705.2881" y="952.2754"/><rect fill="#F0F0F0" height="2" style="stroke:#333333;stroke-width:1;" width="4" x="705.2881" y="956.2754"/><text fill="#000000" font-family="'Segoe UI'" font-size="14" lengthAdjust="spacing" textLength="76.7881" x="625.5" y="980.3828">ToolRegistry</text></g><!--entity PS--><g class="entity" data-qualified-name=".....PS" data-source-line="47" id="ent0023"><rect fill="#F5F5F5" height="48.6211" rx="2.5" ry="2.5" style="stroke:#333333;stroke-width:1;" width="133.2285" x="242.5" y="1075.2754"/><rect fill="#F5F5F5" height="10" style="stroke:#333333;stroke-width:1;" width="15" x="355.7285" y="1080.2754"/><rect fill="#F5F5F5" height="2" style="stroke:#333333;stroke-width:1;" width="4" x="353.7285" y="1082.2754"/><rect fill="#F5F5F5" height="2" style="stroke:#333333;stroke-width:1;" width="4" x="353.7285" y="1086.2754"/><text fill="#000000" font-family="'Segoe UI'" font-size="14" lengthAdjust="spacing" textLength="93.2285" x="257.5" y="1110.3828">run_powershell</text></g><!--entity RF--><g class="entity" data-qualified-name=".....RF" data-source-line="48" id="ent0024"><rect fill="#F5F5F5" height="48.6211" rx="2.5" ry="2.5" style="stroke:#333333;stroke-width:1;" width="156.9014" x="410.5" y="1075.2754"/><rect fill="#F5F5F5" height="10" style="stroke:#333333;stroke-width:1;" width="15" x="547.4014" y="1080.2754"/><rect fill="#F5F5F5" height="2" style="stroke:#333333;stroke-width:1;" width="4" x="545.4014" y="1082.2754"/><rect fill="#F5F5F5" height="2" style="stroke:#333333;stroke-width:1;" width="4" x="545.4014" y="1086.2754"/><text fill="#000000" font-family="'Segoe UI'" font-size="14" lengthAdjust="spacing" textLength="116.9014" x="425.5" y="1110.3828">read/write/edit_file</text></g><!--entity WEB--><g class="entity" data-qualified-name=".....WEB" data-source-line="49" id="ent0025"><rect fill="#F5F5F5" height="67.2422" rx="2.5" ry="2.5" style="stroke:#333333;stroke-width:1;" width="133.2354" x="602.5" y="1066.2754"/><rect fill="#F5F5F5" height="10" style="stroke:#333333;stroke-width:1;" width="15" x="715.7354" y="1071.2754"/><rect fill="#F5F5F5" height="2" style="stroke:#333333;stroke-width:1;" width="4" x="713.7354" y="1073.2754"/><rect fill="#F5F5F5" height="2" style="stroke:#333333;stroke-width:1;" width="4" x="713.7354" y="1077.2754"/><text fill="#000000" font-family="'Segoe UI'" font-size="14" lengthAdjust="spacing" textLength="71.1211" x="617.5" y="1101.3828">web_search</text><text fill="#000000" font-family="'Segoe UI'" font-size="14" lengthAdjust="spacing" textLength="93.2354" x="617.5" y="1120.0039">fetch_webpage</text></g><!--entity FS--><g class="entity" data-qualified-name=".....FS" data-source-line="50" id="ent0026"><rect fill="#F5F5F5" height="67.2422" rx="2.5" ry="2.5" style="stroke:#333333;stroke-width:1;" width="118.1553" x="771" y="1066.2754"/><rect fill="#F5F5F5" height="10" style="stroke:#333333;stroke-width:1;" width="15" x="869.1553" y="1071.2754"/><rect fill="#F5F5F5" height="2" style="stroke:#333333;stroke-width:1;" width="4" x="867.1553" y="1073.2754"/><rect fill="#F5F5F5" height="2" style="stroke:#333333;stroke-width:1;" width="4" x="867.1553" y="1077.2754"/><text fill="#000000" font-family="'Segoe UI'" font-size="14" lengthAdjust="spacing" textLength="78.1553" x="786" y="1101.3828">list_directory</text><text fill="#000000" font-family="'Segoe UI'" font-size="14" lengthAdjust="spacing" textLength="73.165" x="786" y="1120.0039">glob/search</text></g><!--entity AG--><g class="entity" data-qualified-name="......AG" data-source-line="54" id="ent0028"><rect fill="#FFDDDD" height="48.6211" rx="2.5" ry="2.5" style="stroke:#333333;stroke-width:1;" width="87.6396" x="1100" y="945.2754"/><rect fill="#FFDDDD" height="10" style="stroke:#333333;stroke-width:1;" width="15" x="1167.6396" y="950.2754"/><rect fill="#FFDDDD" height="2" style="stroke:#333333;stroke-width:1;" width="4" x="1165.6396" y="952.2754"/><rect fill="#FFDDDD" height="2" style="stroke:#333333;stroke-width:1;" width="4" x="1165.6396" y="956.2754"/><text fill="#000000" font-family="'Segoe UI'" font-size="14" lengthAdjust="spacing" textLength="47.6396" x="1115" y="980.3828">AutoGit</text></g><!--entity TL--><g class="entity" data-qualified-name="......TL" data-source-line="55" id="ent0029"><rect fill="#FFDDDD" height="67.2422" rx="2.5" ry="2.5" style="stroke:#333333;stroke-width:1;" width="119.1807" x="945.5" y="936.2754"/><rect fill="#FFDDDD" height="10" style="stroke:#333333;stroke-width:1;" width="15" x="1044.6807" y="941.2754"/><rect fill="#FFDDDD" height="2" style="stroke:#333333;stroke-width:1;" width="4" x="1042.6807" y="943.2754"/><rect fill="#FFDDDD" height="2" style="stroke:#333333;stroke-width:1;" width="4" x="1042.6807" y="947.2754"/><text fill="#000000" font-family="'Segoe UI'" font-size="14" lengthAdjust="spacing" textLength="79.1807" x="960.5" y="971.3828">TokenBucket</text><text fill="#000000" font-family="'Segoe UI'" font-size="14" lengthAdjust="spacing" textLength="45.1855" x="960.5" y="990.0039">&#12524;&#12540;&#12488;&#21046;&#38480;</text></g><!--entity RL--><g class="entity" data-qualified-name="......RL" data-source-line="56" id="ent0030"><rect fill="#FFDDDD" height="48.6211" rx="2.5" ry="2.5" style="stroke:#333333;stroke-width:1;" width="97.0664" x="1223.5" y="945.2754"/><rect fill="#FFDDDD" height="10" style="stroke:#333333;stroke-width:1;" width="15" x="1300.5664" y="950.2754"/><rect fill="#FFDDDD" height="2" style="stroke:#333333;stroke-width:1;" width="4" x="1298.5664" y="952.2754"/><rect fill="#FFDDDD" height="2" style="stroke:#333333;stroke-width:1;" width="4" x="1298.5664" y="956.2754"/><text fill="#000000" font-family="'Segoe UI'" font-size="14" lengthAdjust="spacing" textLength="57.0664" x="1238.5" y="980.3828">ReactLog</text></g><!--link MAIN to CFG--><g class="link" data-entity-1="ent0003" data-entity-2="ent0007" data-link-type="dependency" data-source-line="60" id="lnk31"><path d="M1053.32,301.8654 C913.75,330.2454 491.6596,416.0896 332.9396,448.3696" fill="none" id="MAIN-to-CFG" style="stroke:#555555;stroke-width:1;"/><polygon fill="#555555" points="327.06,449.5654,336.6766,451.6915,331.9597,448.5689,335.0823,443.852,327.06,449.5654" style="stroke:#555555;stroke-width:1;"/><text fill="#000000" font-family="'Segoe UI'" font-size="13" lengthAdjust="spacing" textLength="41.958" x="757" y="372.3037">&#35373;&#23450;&#12525;&#12540;&#12489;</text></g><!--link MCP to MAIN--><g class="link" data-entity-1="ent0004" data-entity-2="ent0003" data-link-type="dependency" data-source-line="61" id="lnk32"><path d="M1098,165.5154 C1098,192.6254 1098,224.9754 1098,252.0754" fill="none" id="MCP-to-MAIN" style="stroke:#555555;stroke-width:1;"/><polygon fill="#555555" points="1098,258.0754,1102,249.0754,1098,253.0754,1094,249.0754,1098,258.0754" style="stroke:#555555;stroke-width:1;"/><text fill="#000000" font-family="'Segoe UI'" font-size="13" lengthAdjust="spacing" textLength="16.7832" x="1099" y="210.3037">&#36215;&#21205;</text></g><!--link ENV to CFG--><g class="link" data-entity-1="ent0006" data-entity-2="ent0007" data-link-type="dependency" data-source-line="62" id="lnk33"><path d="M267,316.6354 C267,346.0154 267,390.0954 267,423.0554" fill="none" id="ENV-to-CFG" style="stroke:#555555;stroke-width:1;"/><polygon fill="#555555" points="267,429.0554,271,420.0554,267,424.0554,263,420.0554,267,429.0554" style="stroke:#555555;stroke-width:1;"/><text fill="#000000" font-family="'Segoe UI'" font-size="13" lengthAdjust="spacing" textLength="33.5664" x="268" y="372.3037">&#35501;&#12415;&#36796;&#12415;</text></g><!--link CFG to DCFG--><g class="link" data-entity-1="ent0007" data-entity-2="ent0008" data-link-type="dependency" data-source-line="63" id="lnk34"><path d="M268.36,496.4554 C269.47,523.1754 270.7691,554.3206 271.7691,578.2106" fill="none" id="CFG-to-DCFG" style="stroke:#555555;stroke-width:1;"/><polygon fill="#555555" points="272.02,584.2054,275.6401,575.046,271.8109,579.2098,267.6471,575.3806,272.02,584.2054" style="stroke:#555555;stroke-width:1;"/><text fill="#000000" font-family="'Segoe UI'" font-size="13" lengthAdjust="spacing" textLength="59.3696" x="272" y="541.3037">Mistral &#12354;&#12426;</text></g><!--link CFG to OCFG--><g class="link" data-entity-1="ent0007" data-entity-2="ent0009" data-link-type="dependency" data-source-line="64" id="lnk35"><path d="M230.24,496.4554 C200.18,523.1754 162.874,556.3287 136.004,580.2187" fill="none" id="CFG-to-OCFG" style="stroke:#555555;stroke-width:1;"/><polygon fill="#555555" points="131.52,584.2054,140.9038,581.2147,135.2567,580.8831,135.5882,575.236,131.52,584.2054" style="stroke:#555555;stroke-width:1;"/><text fill="#000000" font-family="'Segoe UI'" font-size="13" lengthAdjust="spacing" textLength="59.3696" x="197" y="541.3037">Mistral &#12394;&#12375;</text></g><!--link MAIN to DMO--><g class="link" data-entity-1="ent0003" data-entity-2="ent0011" data-link-type="dependency" data-source-line="66" id="lnk36"><path d="M1112.85,325.3554 C1127.92,358.4554 1148.4117,403.4257 1161.8017,432.8057" fill="none" id="MAIN-to-DMO" style="stroke:#555555;stroke-width:1;"/><polygon fill="#555555" points="1164.29,438.2654,1164.1974,428.417,1162.2164,433.7156,1156.9178,431.7347,1164.29,438.2654" style="stroke:#555555;stroke-width:1;"/><text fill="#000000" font-family="'Segoe UI'" font-size="13" lengthAdjust="spacing" textLength="53.5107" x="1135" y="372.3037">dual &#12514;&#12540;&#12489;</text></g><!--link MAIN to AO--><g class="link" data-entity-1="ent0003" data-entity-2="ent0012" data-link-type="dependency" data-source-line="67" id="lnk37"><path d="M1073.13,325.3554 C1050.36,355.1954 1020.47,394.3456 997.66,424.2356" fill="none" id="MAIN-to-AO" style="stroke:#555555;stroke-width:1;"/><polygon fill="#555555" points="994.02,429.0054,1002.6598,424.2774,997.0533,425.0306,996.3001,419.4241,994.02,429.0054" style="stroke:#555555;stroke-width:1;"/><text fill="#000000" font-family="'Segoe UI'" font-size="13" lengthAdjust="spacing" textLength="53.498" x="1046" y="372.3037">plan &#12514;&#12540;&#12489;</text></g><!--link MAIN to IO--><g class="link" data-entity-1="ent0003" data-entity-2="ent0013" data-link-type="dependency" data-source-line="68" id="lnk38"><path d="M1142.81,300.5554 C1187.82,311.0254 1254.82,334.4154 1286,384.2754 C1312.4,426.4754 1304.79,450.1754 1286,496.2754 C1273.13,527.8654 1251.1255,551.5197 1227.4255,571.3097" fill="none" id="MAIN-to-IO" style="stroke:#555555;stroke-width:1;"/><polygon fill="#555555" points="1222.82,575.1554,1232.292,572.4572,1226.6579,571.9506,1227.1645,566.3165,1222.82,575.1554" style="stroke:#555555;stroke-width:1;"/><text fill="#000000" font-family="'Segoe UI'" font-size="13" lengthAdjust="spacing" textLength="88.1626" x="1304" y="468.3037">interactive &#12514;&#12540;&#12489;</text></g><!--link DMO to THINKER--><g class="link" data-entity-1="ent0011" data-entity-2="ent0016" data-link-type="dependency" data-source-line="70" id="lnk39"><path d="M1095.41,487.3354 C1039.1,504.0454 972.47,523.9154 966,526.2754 C914.58,545.0354 886.95,532.3354 853,575.2754 C814.32,624.1854 809.6221,693.229 811.2421,739.949" fill="none" id="DMO-to-THINKER" style="stroke:#555555;stroke-width:1;"/><polygon fill="#555555" points="811.45,745.9454,815.1357,736.8122,811.2767,740.9484,807.1405,737.0894,811.45,745.9454" style="stroke:#555555;stroke-width:1;"/><text fill="#000000" font-family="'Segoe UI'" font-size="13" lengthAdjust="spacing" textLength="41.958" x="854" y="614.3037">&#35336;&#30011;&#12539;&#35413;&#20385;</text></g><!--link DMO to IO--><g class="link" data-entity-1="ent0011" data-entity-2="ent0013" data-link-type="dependency" data-source-line="71" id="lnk40"><path d="M1175.33,487.5554 C1175.66,511.4354 1176.0967,542.426 1176.4667,569.066" fill="none" id="DMO-to-IO" style="stroke:#555555;stroke-width:1;"/><polygon fill="#555555" points="1176.55,575.0654,1180.4246,566.0107,1176.4806,570.0659,1172.4254,566.1218,1176.55,575.0654" style="stroke:#555555;stroke-width:1;"/><text fill="#000000" font-family="'Segoe UI'" font-size="13" lengthAdjust="spacing" textLength="33.5664" x="1177" y="541.3037">&#23455;&#34892;&#22996;&#35698;</text></g><!--link DMO to AG--><g class="link" data-entity-1="ent0011" data-entity-2="ent0028" data-link-type="dependency" data-source-line="72" id="lnk41"><path d="M1210.44,487.4254 C1236.82,507.3354 1270.78,538.4154 1286,575.2754 C1301.44,612.6554 1308.14,632.4254 1286,666.2754 C1264.76,698.7554 1230.8,671.4154 1206,701.2754 C1174.86,738.7754 1154.6444,881.1105 1147.4744,939.2505" fill="none" id="DMO-to-AG" style="stroke:#555555;stroke-width:1;"/><polygon fill="#555555" points="1146.74,945.2054,1151.8115,936.7626,1147.352,940.243,1143.8716,935.7835,1146.74,945.2054" style="stroke:#555555;stroke-width:1;"/><text fill="#000000" font-family="'Segoe UI'" font-size="13" lengthAdjust="spacing" textLength="50.3496" x="1280" y="689.3037">&#12496;&#12483;&#12463;&#12450;&#12483;&#12503;</text></g><!--link IO to ACTOR--><g class="link" data-entity-1="ent0013" data-entity-2="ent0017" data-link-type="dependency" data-source-line="73" id="lnk42"><path d="M1143.07,642.5154 C1112.92,671.6054 1072.9982,710.1297 1040.1682,741.7997" fill="none" id="IO-to-ACTOR" style="stroke:#555555;stroke-width:1;"/><polygon fill="#555555" points="1035.85,745.9654,1045.1045,742.5957,1039.4485,742.494,1039.5503,736.8381,1035.85,745.9654" style="stroke:#555555;stroke-width:1;"/><text fill="#000000" font-family="'Segoe UI'" font-size="13" lengthAdjust="spacing" textLength="53.7139" x="1107" y="689.3037">ReAct &#23455;&#34892;</text></g><!--link AO to PLANNER--><g class="link" data-entity-1="ent0012" data-entity-2="ent0018" data-link-type="dependency" data-source-line="74" id="lnk43"><path d="M890.69,465.3154 C808.36,471.4354 681.35,494.4654 612,575.2754 C566.05,628.8254 544.684,704.6458 535.134,749.7058" fill="none" id="AO-to-PLANNER" style="stroke:#555555;stroke-width:1;"/><polygon fill="#555555" points="533.89,755.5754,539.6691,747.6003,534.9267,750.684,531.8429,745.9416,533.89,755.5754" style="stroke:#555555;stroke-width:1;"/><text fill="#000000" font-family="'Segoe UI'" font-size="13" lengthAdjust="spacing" textLength="33.5664" x="613" y="614.3037">&#35336;&#30011;&#29983;&#25104;</text></g><!--link AO to REVIEWER--><g class="link" data-entity-1="ent0012" data-entity-2="ent0019" data-link-type="dependency" data-source-line="75" id="lnk44"><path d="M890.93,468.1154 C820.53,476.8354 721.84,502.2454 680,575.2754 C645.19,636.0254 653.641,717.2678 661.001,758.7178" fill="none" id="AO-to-REVIEWER" style="stroke:#555555;stroke-width:1;"/><polygon fill="#555555" points="662.05,764.6254,664.4149,755.0647,661.1759,759.7024,656.5381,756.4633,662.05,764.6254" style="stroke:#555555;stroke-width:1;"/><text fill="#000000" font-family="'Segoe UI'" font-size="13" lengthAdjust="spacing" textLength="33.5664" x="681" y="614.3037">&#32080;&#26524;&#26908;&#35388;</text></g><!--link AO to REFLECTOR--><g class="link" data-entity-1="ent0012" data-entity-2="ent0020" data-link-type="dependency" data-source-line="76" id="lnk45"><path d="M890.55,474.4354 C776.53,491.3454 572.55,527.3754 517,575.2754 C454.6,629.0854 416.2037,715.5714 399.6437,758.8614" fill="none" id="AO-to-REFLECTOR" style="stroke:#555555;stroke-width:1;"/><polygon fill="#555555" points="397.5,764.4654,404.4516,757.4886,399.2864,759.7954,396.9796,754.6303,397.5,764.4654" style="stroke:#555555;stroke-width:1;"/><text fill="#000000" font-family="'Segoe UI'" font-size="13" lengthAdjust="spacing" textLength="33.5664" x="518" y="614.3037">&#26368;&#32066;&#26908;&#35388;</text></g><!--link AO to WG--><g class="link" data-entity-1="ent0012" data-entity-2="ent0014" data-link-type="dependency" data-source-line="77" id="lnk46"><path d="M971.95,496.4554 C974.36,523.1754 977.1822,554.3395 979.3322,578.2295" fill="none" id="AO-to-WG" style="stroke:#555555;stroke-width:1;"/><polygon fill="#555555" points="979.87,584.2054,983.0472,574.8831,979.4218,579.2255,975.0794,575.6002,979.87,584.2054" style="stroke:#555555;stroke-width:1;"/><text fill="#000000" font-family="'Segoe UI'" font-size="13" lengthAdjust="spacing" textLength="41.958" x="977" y="541.3037">&#21046;&#24481;&#12501;&#12525;&#12540;</text></g><!--link AO to ACTOR--><g class="link" data-entity-1="ent0012" data-entity-2="ent0017" data-link-type="dependency" data-source-line="78" id="lnk47"><path d="M890.92,477.0754 C836.59,491.0854 768.91,519.2854 740,575.2754 C721.44,611.2154 714.68,634.7354 740,666.2754 C785.02,722.3654 834.28,667.9154 898,701.2754 C919.28,712.4154 935.1018,725.3883 951.1818,741.5783" fill="none" id="AO-to-ACTOR" style="stroke:#555555;stroke-width:1;"/><polygon fill="#555555" points="955.41,745.8354,951.9058,736.631,951.8865,742.2878,946.2297,742.2685,955.41,745.8354" style="stroke:#555555;stroke-width:1;"/><text fill="#000000" font-family="'Segoe UI'" font-size="13" lengthAdjust="spacing" textLength="50.3496" x="741" y="614.3037">&#12473;&#12486;&#12483;&#12503;&#23455;&#34892;</text></g><!--link ACTOR to TR--><g class="link" data-entity-1="ent0017" data-entity-2="ent0022" data-link-type="dependency" data-source-line="80" id="lnk48"><path d="M935.02,832.3954 C923.02,840.6554 910.27,849.0154 898,856.2754 C840.06,890.5654 775.6572,921.3236 728.4572,942.6636" fill="none" id="ACTOR-to-TR" style="stroke:#555555;stroke-width:1;"/><polygon fill="#555555" points="722.99,945.1354,732.8387,945.0725,727.546,943.0755,729.5429,937.7829,722.99,945.1354" style="stroke:#555555;stroke-width:1;"/><text fill="#000000" font-family="'Segoe UI'" font-size="13" lengthAdjust="spacing" textLength="58.7412" x="881" y="879.3037">&#12484;&#12540;&#12523;&#21628;&#12403;&#20986;&#12375;</text></g><!--link TR to PS--><g class="link" data-entity-1="ent0022" data-entity-2="ent0023" data-link-type="dependency" data-source-line="81" id="lnk49"><path d="M610.36,990.3854 C554.34,1009.2754 467.63,1038.9354 393,1066.2754 C385.22,1069.1254 382.6662,1070.0474 374.6162,1073.1174" fill="none" id="TR-to-PS" style="stroke:#555555;stroke-width:1;"/><polygon fill="#555555" points="369.01,1075.2554,378.8446,1075.7858,373.6818,1073.4737,375.9939,1068.311,369.01,1075.2554" style="stroke:#555555;stroke-width:1;"/></g><!--link TR to RF--><g class="link" data-entity-1="ent0022" data-entity-2="ent0024" data-link-type="dependency" data-source-line="82" id="lnk50"><path d="M635.57,994.5554 C603.23,1017.5454 559.4196,1048.698 527.1496,1071.648" fill="none" id="TR-to-RF" style="stroke:#555555;stroke-width:1;"/><polygon fill="#555555" points="522.26,1075.1254,531.9126,1073.169,526.3346,1072.2276,527.2761,1066.6496,522.26,1075.1254" style="stroke:#555555;stroke-width:1;"/></g><!--link TR to WEB--><g class="link" data-entity-1="ent0022" data-entity-2="ent0025" data-link-type="dependency" data-source-line="83" id="lnk51"><path d="M669,994.5554 C669,1014.6454 669,1037.6454 669,1059.9554" fill="none" id="TR-to-WEB" style="stroke:#555555;stroke-width:1;"/><polygon fill="#555555" points="669,1065.9554,673,1056.9554,669,1060.9554,665,1056.9554,669,1065.9554" style="stroke:#555555;stroke-width:1;"/></g><!--link TR to FS--><g class="link" data-entity-1="ent0022" data-entity-2="ent0026" data-link-type="dependency" data-source-line="84" id="lnk52"><path d="M698.91,994.5554 C724.28,1014.7254 756.2227,1040.1223 784.3327,1062.4623" fill="none" id="TR-to-FS" style="stroke:#555555;stroke-width:1;"/><polygon fill="#555555" points="789.03,1066.1954,784.4728,1057.4643,785.1156,1063.0845,779.4954,1063.7273,789.03,1066.1954" style="stroke:#555555;stroke-width:1;"/></g><!--link ACTOR to TL--><g class="link" data-entity-1="ent0017" data-entity-2="ent0029" data-link-type="dependency" data-source-line="86" id="lnk53"><path d="M989.99,832.5254 C989.58,842.9054 989.21,853.9954 989,864.2754 C988.83,872.7154 988.22,874.8654 989,883.2754 C990.63,900.8654 992.887,914.3614 996.187,930.2114" fill="none" id="ACTOR-to-TL" style="stroke:#555555;stroke-width:1;"/><polygon fill="#555555" points="997.41,936.0854,999.4915,926.459,996.3908,931.1904,991.6595,928.0897,997.41,936.0854" style="stroke:#555555;stroke-width:1;"/><text fill="#000000" font-family="'Segoe UI'" font-size="13" lengthAdjust="spacing" textLength="63.8574" x="990" y="879.3037">RPM &#12481;&#12455;&#12483;&#12463;</text></g><!--link ACTOR to AG--><g class="link" data-entity-1="ent0017" data-entity-2="ent0028" data-link-type="dependency" data-source-line="87" id="lnk54"><path d="M1030.62,832.5754 C1046.73,850.4954 1065.49,871.7054 1082,891.2754 C1097,909.0554 1109.7117,924.9185 1121.8817,940.3985" fill="none" id="ACTOR-to-AG" style="stroke:#555555;stroke-width:1;"/><polygon fill="#555555" points="1125.59,945.1154,1123.1722,935.5679,1122.4998,941.1847,1116.883,940.5123,1125.59,945.1154" style="stroke:#555555;stroke-width:1;"/><text fill="#000000" font-family="'Segoe UI'" font-size="13" lengthAdjust="spacing" textLength="62.7974" x="1075" y="879.3037">checkpoint</text></g><!--link IO to RL--><g class="link" data-entity-1="ent0013" data-entity-2="ent0030" data-link-type="dependency" data-source-line="88" id="lnk55"><path d="M1185.68,642.5854 C1204.6,714.0754 1247.6247,876.6751 1264.1547,939.1251" fill="none" id="IO-to-RL" style="stroke:#555555;stroke-width:1;"/><polygon fill="#555555" points="1265.69,944.9254,1267.2539,935.2015,1264.4106,940.0918,1259.5202,937.2485,1265.69,944.9254" style="stroke:#555555;stroke-width:1;"/><text fill="#000000" font-family="'Segoe UI'" font-size="13" lengthAdjust="spacing" textLength="33.5664" x="1242" y="794.8037">&#12525;&#12464;&#35352;&#37682;</text></g><?plantuml-src rLPjJzjM5FxkNt6NVbZtWOB4a5e-J3A9pRBb1JciV2XJTB5l4YkEh-KuPDM4DEnjPLidCGtMlR1rC2GeNRgrYA6jZFwNNWBXN-o-sC5Eatsl7GNVFCyvzpddddFm6ruDDH1mB6ZQKhDksWvqOGCiGRrUTN7BDjBOmYwufihiZZ4CL84jorEnxHKWzP0geIf6u8DiAaQINHUtGmzJ_8g1QTnmi8riRmQx1d93sYI_Xj86DIcAEgMgCMe6Ud09Dj7_E-opNebHLMzcqZ5c0Nj3MMhw5LPynrlyaYJFz2m4ycR3r2S1yO-9_pS9FYV1hyJV8S49yJjiwVz1WbKI_2P9RuANc-klruTgxdwsV_RljyG_907z_Cm22xxcpslTdmvVow0aXnuwhDAY9lw-28K41omuVrSiK-1Z2G0zAarmfrnkq0ugbsyuTnTjzdZzhGy1R8Ayd2tGIhsfJYctaXODtIataRkCN6wJJy-14byAExgCp5PYWdhxdUwJ7xjFTuK28wnbS2Tr0zdBAMwh56xtYpcnfOxjYbdbsraO6cMn3fMcrLbmBPEXJQKchJ8jQAKva_Co8ub51zaQRdci4VhqOfo-aaZj0M-2fxmjQ89_vyjZ4kpH7FSZ712InmQoYgvUGqtFXHuMsShaYonYvUsPgQI9NAL_ulH5-_gS1UqnQ1jZoaT8fsf5-F883rcRnWDrprn60tuq9EkUCCwEC5x0RhrYuVQi2vqQPoxCzfdnPCXPG08w5EwHuF6mqFCcszUQhvbs7T7DmpN8GPUQJr8r9FYKjzvZidf0LXy8NVFlPWllAngjf0bbOlHnyImjsiMs9LjE3N9lcynLv3DCKNg-EC8NowdDXBrNAXP0WnuIjvZBoON2gFqrj6oYTbZlcd8xgooCfbOif4UdhIbgJabeITHL97fO7kSnjZHKPTcxAp94dQWJx4uItPPTTZ1LrwmXonB1b2XrYjq3L0IDyRPhUcWS6QPNhfYMY5vJXnkqqHBjV4YhQT6k84-lbUal3XKlAaIP6MvcKTLbmtHv8cWBLosyD2xyS4FrIb-opyJCeWVwQ5XAv9Q7PqrFd32lpWoz1jDMH_PCIwyZMYPXfzBnllRNvG_h8esvuOOQegsJms8KQ5Ua5VRVxlAxdRCNliH7vDZOEtm2JGCnuKZGuPjy8R59o51Ee_3HSVUhJOdDk9ZDGOUilkYTdj1lYVt4e8p0ebOXgpxnl-oZnK6KTOrq9OQDb6bWj1WMx4HQ8bHc87rfieU1MGQQLtCZnf6OMyQ9EfF5ktQnyPm4ptkFDizEj_iCxgNxv65l-tvtRwFNUTP7P2QS1Eia2DZR0tkP24ZmGCg6C6-DQS3dK-X1aWKMDMIqxSN6m_ErzGZjD-4qk3XQF_zbwtntgxT_SWL7VJSDphS-kJZoa_W2qqMBedkwpSkDdM24HQAYTo0cE9Gc2OndXLFw3VmDFS_3xhr_sCdC2yPSANhIrEY9Tapqg9OIxd8i3NDvmDwm_3sHhnZE4qbdkbvtC3slA85QZgle4F_Ftlxtb_UVIVy1?></g></svg>